<?xml version="1.0" standalone="no"?>
<!DOCTYPE svg PUBLIC "-//W3C//DTD SVG 20010904//EN"
 "http://www.w3.org/TR/2001/REC-SVG-20010904/DTD/svg10.dtd">
<svg version="1.0" xmlns="http://www.w3.org/2000/svg"
 width="1812.000000pt" height="1812.000000pt" viewBox="0 0 1812.000000 1812.000000"
 preserveAspectRatio="xMidYMid meet">
<metadata>
Created by potrace 1.11, written by Peter Selinger 2001-2013
</metadata>
<g transform="translate(0.000000,1812.000000) scale(0.100000,-0.100000)"
fill="#000000" stroke="none">
<path d="M8820 18014 c-2057 -62 -3956 -777 -5515 -2073 -1759 -1464 -2893
-3519 -3180 -5761 -301 -2361 310 -4698 1718 -6572 612 -814 1366 -1530 2207
-2094 1337 -897 2854 -1407 4477 -1504 220 -13 848 -13 1063 0 2087 126 3976
921 5530 2325 173 156 570 560 724 737 1633 1873 2409 4264 2190 6748 -225
2558 -1531 4881 -3614 6432 -929 692 -2015 1208 -3132 1488 -552 139 -1105
225 -1673 259 -181 11 -637 20 -795 15z m527 -754 c1413 -55 2744 -446 3933
-1158 1641 -982 2900 -2502 3545 -4282 259 -716 411 -1427 477 -2240 16 -204
16 -945 0 -1150 -81 -1002 -304 -1897 -687 -2760 -543 -1222 -1373 -2294
-2427 -3133 -1180 -940 -2595 -1537 -4093 -1726 -382 -49 -507 -55 -1025 -56
-505 0 -600 5 -955 46 -2252 260 -4291 1433 -5660 3254 -1255 1670 -1822 3717
-1610 5810 133 1305 594 2586 1332 3698 505 761 1166 1466 1893 2019 1345
1023 2979 1611 4660 1677 302 12 331 12 617 1z"/>
<path d="M8675 16820 c-1429 -80 -2747 -515 -3925 -1295 -917 -607 -1731
-1439 -2307 -2360 -717 -1144 -1110 -2374 -1193 -3725 -13 -212 -13 -678 0
-890 48 -783 202 -1528 461 -2238 728 -1990 2250 -3618 4189 -4479 1762 -783
3774 -884 5607 -282 1041 342 2002 901 2821 1642 268 242 627 623 858 912 895
1114 1469 2462 1653 3885 49 376 56 492 56 1005 0 513 -7 628 -56 1005 -204
1579 -883 3052 -1951 4235 -1118 1237 -2575 2079 -4199 2425 -312 67 -720 124
-1074 150 -195 15 -748 20 -940 10z m740 -750 c943 -50 1808 -265 2647 -655
636 -296 1271 -722 1795 -1203 l122 -112 -52 -48 c-29 -27 -597 -535 -1263
-1129 l-1210 -1080 -110 -32 c-61 -18 -117 -36 -125 -41 -10 -7 -14 -29 -14
-80 0 -69 -1 -72 -35 -100 l-34 -28 -38 19 c-50 26 -184 39 -403 39 -157 0
-185 -2 -215 -19 -71 -37 -108 -137 -75 -200 32 -62 194 -147 303 -158 28 -3
52 -9 52 -13 0 -15 -432 -392 -440 -384 -5 5 -30 47 -55 94 -186 339 -382 531
-596 586 -121 31 -178 9 -322 -125 -102 -95 -220 -164 -279 -164 -15 0 -66 18
-112 41 -64 32 -108 64 -179 131 -118 112 -143 125 -227 125 -246 1 -506 -246
-724 -684 -204 -411 -241 -770 -104 -1000 66 -110 163 -125 446 -69 145 29
165 31 262 23 58 -5 141 -9 185 -8 104 0 158 28 246 126 70 79 168 148 208
148 14 0 43 -11 65 -24 56 -35 146 -115 146 -131 0 -7 -85 -90 -190 -183
l-189 -169 -158 -7 c-828 -36 -1392 -186 -1549 -413 -19 -26 -37 -63 -40 -80
l-6 -33 575 -2 576 -3 -219 -194 -218 -194 -167 -28 c-556 -94 -948 -259
-1097 -463 -15 -21 -28 -43 -28 -48 0 -4 153 -8 340 -8 l340 0 -192 -172
c-106 -94 -202 -179 -213 -189 -18 -16 -50 -20 -220 -27 -173 -8 -207 -12
-250 -31 -140 -62 -204 -199 -205 -436 l0 -110 -1355 -1210 c-746 -666 -1359
-1211 -1364 -1213 -20 -7 -316 421 -464 671 -553 932 -866 1897 -974 3002 -25
257 -25 983 0 1240 89 917 313 1713 707 2510 887 1797 2511 3149 4433 3690
727 204 1524 294 2262 255z m5602 -3232 c600 -926 975 -1975 1092 -3053 33
-297 41 -456 41 -787 0 -328 -9 -508 -41 -793 -215 -1945 -1241 -3723 -2829
-4902 -1641 -1218 -3715 -1663 -5725 -1227 -1042 226 -2045 704 -2889 1378
l-150 119 36 31 c20 17 593 533 1273 1146 l1236 1115 2062 5 2062 5 48 23 c66
33 130 101 169 180 31 63 33 73 33 172 0 86 -5 115 -23 162 -31 76 -107 159
-180 195 l-57 28 -1624 5 -1625 5 163 148 163 147 1708 0 c1619 0 1709 1 1714
18 28 94 35 358 11 460 -30 128 -88 206 -185 251 -54 24 -64 25 -500 42 -1199
47 -1800 74 -1798 81 2 4 75 73 163 152 l160 145 958 1 c526 0 957 4 957 8 0
16 -56 87 -103 129 -137 126 -409 246 -727 323 -138 33 -398 80 -443 80 -16 0
-27 4 -25 8 2 5 98 95 215 200 l212 192 205 0 206 0 0 27 c0 39 -43 105 -102
157 l-53 46 25 23 c14 13 139 127 279 252 l254 228 46 -17 c141 -55 350 -88
561 -90 171 -1 217 11 276 76 46 52 85 135 87 190 l2 43 -117 11 c-65 7 -217
20 -338 30 -121 10 -220 20 -219 23 0 3 216 200 481 438 l480 431 35 -24 c63
-43 105 -49 303 -47 226 3 282 14 485 95 275 110 343 156 397 265 26 54 33 79
33 131 0 57 -3 66 -28 88 -53 46 -107 25 -242 -96 -119 -106 -240 -153 -439
-172 -78 -7 -148 -8 -196 -2 l-75 9 1005 907 c553 499 1008 907 1011 908 4 0
43 -55 86 -122z"/>
<path d="M6180 13600 c-75 -41 -100 -73 -100 -131 0 -75 73 -155 200 -219 156
-79 323 -89 345 -21 15 48 -80 190 -191 286 -78 67 -152 115 -178 115 -11 0
-46 -14 -76 -30z"/>
<path d="M11835 13613 c-133 -71 -325 -286 -325 -365 0 -109 265 -72 440 60
145 111 145 224 -1 298 -56 28 -73 29 -114 7z"/>
<path d="M9033 13335 c-144 -52 -324 -211 -438 -387 l-17 -28 491 0 491 0 -21
43 c-93 183 -231 327 -358 372 -69 24 -82 24 -148 0z"/>
<path d="M6744 13186 c-45 -20 -64 -52 -64 -110 0 -122 79 -177 327 -228 l151
-31 35 22 c66 41 97 153 62 221 -23 44 -90 78 -220 110 -129 33 -238 39 -291
16z"/>
<path d="M11151 13185 c-199 -44 -276 -92 -288 -182 -6 -52 39 -140 85 -167
34 -19 34 -19 160 7 218 45 267 66 317 131 55 72 41 177 -28 209 -43 21 -154
21 -246 2z"/>
<path d="M7745 12983 c-59 -4 -262 -32 -287 -39 -24 -7 -24 -69 1 -127 46
-107 149 -170 281 -171 89 0 140 13 202 54 86 57 128 157 98 230 -24 57 -79
67 -295 53z"/>
<path d="M10144 12981 c-78 -34 -71 -174 13 -253 15 -15 55 -39 88 -54 51 -24
73 -28 145 -28 136 0 227 51 280 157 34 69 39 121 12 136 -53 28 -492 62 -538
42z"/>
<path d="M8225 12656 c-55 -25 -70 -51 -70 -126 0 -60 5 -77 47 -161 54 -108
130 -199 263 -315 49 -44 136 -123 192 -177 133 -125 182 -157 245 -157 l48 0
0 379 0 379 31 6 c40 8 147 8 177 0 l22 -6 0 -379 0 -379 50 0 c101 0 190 60
414 280 226 222 336 395 336 531 0 44 -4 55 -33 84 -61 61 -64 62 -617 36
-215 -10 -498 -5 -980 15 -66 3 -104 0 -125 -10z"/>
<path d="M4261 12424 c-28 -36 -28 -115 1 -191 28 -76 101 -147 199 -195 104
-52 332 -142 409 -163 84 -22 409 -33 492 -16 114 24 168 95 168 221 0 46 -4
60 -24 79 -34 32 -77 35 -221 16 -172 -23 -396 -17 -505 15 -113 32 -189 73
-266 141 -137 122 -209 149 -253 93z"/>
<path d="M5846 12034 c-10 -27 -6 -126 8 -185 20 -87 58 -144 119 -179 142
-82 577 -163 782 -145 208 19 294 85 283 220 -3 39 -4 40 -68 63 -113 41 -444
115 -894 202 -116 22 -213 40 -217 40 -4 0 -10 -7 -13 -16z"/>
<path d="M7272 11630 c-91 -10 -155 -35 -160 -64 -3 -12 17 -40 56 -80 33 -33
68 -77 77 -96 54 -109 96 -134 220 -133 136 1 275 55 354 137 32 33 33 38 29
91 -5 59 -24 94 -72 129 -25 19 -42 21 -224 22 -108 1 -234 -2 -280 -6z"/>
<path d="M4373 11424 c-24 -24 -25 -30 -21 -97 6 -87 38 -157 100 -217 46 -44
159 -102 339 -174 191 -76 245 -86 469 -89 225 -2 265 5 321 62 41 41 59 91
59 169 0 43 -5 57 -25 78 -29 29 -51 29 -322 4 -305 -29 -515 26 -688 181
-126 112 -183 132 -232 83z"/>
<path d="M5954 11014 c-10 -38 2 -162 21 -215 36 -105 117 -159 308 -208 205
-53 298 -65 492 -66 150 0 189 3 233 18 97 34 142 90 142 176 0 66 -9 72 -201
121 -241 61 -914 200 -970 200 -12 0 -21 -9 -25 -26z"/>
<path d="M4414 10398 c-47 -23 -56 -94 -23 -183 40 -108 103 -155 331 -249
206 -85 260 -96 473 -99 165 -2 184 0 225 19 25 12 53 30 63 42 47 52 63 176
28 211 -30 30 -75 34 -204 17 -324 -43 -528 1 -702 150 -78 68 -138 105 -162
103 -4 0 -18 -5 -29 -11z"/>
<path d="M6445 10034 c-99 -8 -263 -22 -365 -32 l-185 -17 -3 -38 c-4 -46 39
-145 87 -199 53 -61 102 -73 281 -72 300 2 566 65 678 159 17 14 38 45 47 69
15 39 15 49 3 92 l-14 49 -174 1 c-96 1 -256 -5 -355 -12z"/>
<path d="M13753 10374 c-18 -9 -65 -45 -105 -80 -39 -35 -98 -77 -129 -94
-135 -72 -337 -95 -572 -65 -198 25 -227 13 -227 -89 1 -122 51 -178 176 -196
87 -12 296 -4 393 17 71 14 296 100 394 150 118 59 187 159 187 270 0 55 -3
64 -26 82 -32 25 -48 26 -91 5z"/>
<path d="M7199 5556 c-96 -34 -170 -122 -204 -240 -13 -43 -16 -85 -13 -160 3
-88 8 -110 35 -168 36 -76 96 -141 156 -169 41 -18 95 -19 1662 -19 l1620 0
50 24 c127 59 206 223 192 399 -10 138 -77 254 -177 311 l-55 31 -1615 2
c-1303 2 -1622 0 -1651 -11z"/>
<path d="M7572 4340 c-9 -24 -7 -34 11 -61 46 -68 327 -271 635 -459 99 -60
104 -62 122 -45 32 29 115 155 158 240 22 44 54 99 71 122 37 52 120 108 181
124 42 11 51 10 106 -15 85 -38 141 -100 214 -236 63 -116 154 -250 171 -250
16 0 362 220 497 316 143 101 250 196 258 229 3 13 1 33 -6 44 l-11 21 -1198
0 -1199 0 -10 -30z"/>
</g>
</svg>
